<?xml version="1.0" standalone="no"?><!DOCTYPE svg PUBLIC "-//W3C//DTD SVG 1.1//EN" "http://www.w3.org/Graphics/SVG/1.1/DTD/svg11.dtd"><svg t="1492540267359" class="icon" style="" viewBox="0 0 1024 1024" version="1.1" xmlns="http://www.w3.org/2000/svg" p-id="995" xmlns:xlink="http://www.w3.org/1999/xlink" width="32" height="32"><defs><style type="text/css"></style></defs><path d="M512.522 79.275c-238.986 0-432.726 193.772-432.726 432.725 0 239.014 193.742 432.725 432.726 432.725 238.985 0 432.725-193.71 432.725-432.725-0.001-238.953-193.743-432.725-432.725-432.725zM512.522 882.894c-204.832 0-370.894-166.063-370.894-370.893 0-204.831 166.063-370.894 370.894-370.894 204.861 0 370.893 166.063 370.893 370.894 0 204.83-166.031 370.893-370.893 370.893z" p-id="996" fill="#1296db"></path><path d="M447.151 566.596l-135.478-161.387-62.684 51.248 195.446 242.239c119.966-261.511 331.622-373.422 331.622-373.422-207.264 39.083-328.905 241.323-328.905 241.323z" p-id="997" fill="#1296db"></path></svg>